<?xml version="1.0" encoding="UTF-8"?>
<svg version="1.1" xmlns="http://www.w3.org/2000/svg" width="287" height="179">
<path d="M0 0 C3.77727089 1.81309003 7.37269822 3.9073259 11 6 C11 6.66 11 7.32 11 8 C11.721875 8.268125 12.44375 8.53625 13.1875 8.8125 C15.97779843 9.990626 18.42249326 11.4188404 21 13 C21.47832275 12.71278076 21.95664551 12.42556152 22.44946289 12.12963867 C24.65113966 10.81107685 26.85676667 9.49926366 29.0625 8.1875 C30.19075195 7.50977539 30.19075195 7.50977539 31.34179688 6.81835938 C35.79364497 4.17808583 40.19280486 1.92160125 45 0 C46.99008219 1.63733188 47.91598408 2.51981432 48.36749268 5.10037231 C48.36384705 5.90787933 48.36020142 6.71538635 48.35644531 7.54736328 C48.35944641 8.46486359 48.36244751 9.38236389 48.36553955 10.32766724 C48.35319275 11.31524017 48.34084595 12.30281311 48.328125 13.3203125 C48.32625183 14.33471405 48.32437866 15.3491156 48.32244873 16.39425659 C48.31572607 18.53777352 48.30180739 20.68127814 48.28125 22.82470703 C48.25005748 26.11893005 48.24027622 29.41267512 48.234375 32.70703125 C48.22520683 34.78646421 48.21483165 36.86589228 48.203125 38.9453125 C48.19675018 40.4327446 48.19675018 40.4327446 48.19024658 41.95022583 C48.18063904 42.86142181 48.17103149 43.7726178 48.16113281 44.71142578 C48.15430481 45.51734161 48.14747681 46.32325745 48.14044189 47.15359497 C48 49 48 49 47 50 C45.4651703 50.09319449 43.92607918 50.117458 42.38842773 50.11352539 C41.40748642 50.11344986 40.4265451 50.11337433 39.4158783 50.11329651 C38.3492244 50.10813522 37.2825705 50.10297394 36.18359375 50.09765625 C34.55430687 50.09553383 34.55430687 50.09553383 32.8921051 50.09336853 C29.40720925 50.08775048 25.92237658 50.07519492 22.4375 50.0625 C20.08138113 50.05748733 17.72526126 50.05292402 15.36914062 50.04882812 C9.57940536 50.03777519 3.78970719 50.02101951 -2 50 C-2.0505894 43.20071581 -2.08568667 36.4014799 -2.10986328 29.60205078 C-2.11993892 27.28757921 -2.13359975 24.97312041 -2.15087891 22.65869141 C-2.17505865 19.33753307 -2.1864673 16.0165426 -2.1953125 12.6953125 C-2.20563507 11.65569366 -2.21595764 10.61607483 -2.22659302 9.54495239 C-2.22674408 8.58410736 -2.22689514 7.62326233 -2.22705078 6.63330078 C-2.231492 5.78502716 -2.23593323 4.93675354 -2.24050903 4.06277466 C-2 2 -2 2 0 0 Z " fill="#F3B52C" transform="translate(123,44)"/>
<path d="M0 0 C1.28828705 -0.00953201 2.5765741 -0.01906403 3.90390015 -0.02888489 C5.31695584 -0.02862344 6.73001155 -0.02768629 8.14306641 -0.02612305 C9.58794275 -0.030009 11.03281794 -0.03434346 12.47769165 -0.03910828 C15.50909117 -0.04657732 18.54037426 -0.04627479 21.57177734 -0.04101562 C25.45466549 -0.03522679 29.33707573 -0.05213398 33.21988487 -0.0753603 C36.2053404 -0.09010219 39.19068105 -0.09096863 42.17616653 -0.08785057 C43.60748871 -0.08836378 45.03881731 -0.09360155 46.47010422 -0.10366249 C48.47352199 -0.11601385 50.47703609 -0.10729556 52.48046875 -0.09765625 C53.62027191 -0.09828568 54.76007507 -0.0989151 55.93441772 -0.0995636 C59.19962213 0.31673036 60.5602297 0.96379706 62.86962891 3.2746582 C63.83266804 6.16377561 63.99618014 7.98767606 63.99902344 10.98974609 C64.0021756 11.94406021 64.00532776 12.89837433 64.00857544 13.88160706 C64.00553909 15.42388222 64.00553909 15.42388222 64.00244141 16.99731445 C64.00339813 18.05373642 64.00435486 19.11015839 64.00534058 20.19859314 C64.00602122 22.43203796 64.00417496 24.66548476 64 26.89892578 C63.99464485 30.32694922 63.99995164 33.75484195 64.00634766 37.18286133 C64.00568696 39.35017933 64.00440597 41.51749724 64.00244141 43.68481445 C64.00446564 44.71502213 64.00648987 45.7452298 64.00857544 46.80665588 C64.0038472 48.23339882 64.0038472 48.23339882 63.99902344 49.68896484 C63.99822784 50.52818985 63.99743225 51.36741486 63.99661255 52.23207092 C63.86962891 54.2746582 63.86962891 54.2746582 62.86962891 56.2746582 C61.54962891 56.2746582 60.22962891 56.2746582 58.86962891 56.2746582 C58.85932144 55.65047501 58.84901398 55.02629181 58.83839417 54.38319397 C58.73056357 47.91111268 58.61594743 41.43917727 58.49731445 34.96728516 C58.45389013 32.54902181 58.41222079 30.1307263 58.37231445 27.71240234 C58.31479287 24.24477424 58.25104704 20.77730917 58.18603516 17.30981445 C58.16932266 16.22128677 58.15261017 15.13275909 58.13539124 14.01124573 C58.1054734 12.50980263 58.1054734 12.50980263 58.07495117 10.97802734 C58.05163475 9.64899132 58.05163475 9.64899132 58.02784729 8.29310608 C58.08981566 6.27828279 58.08981566 6.27828279 56.86962891 5.2746582 C54.93656392 5.18069763 53.00004053 5.15722303 51.06469727 5.16113281 C49.82348618 5.16120834 48.58227509 5.16128387 47.30345154 5.16136169 C45.93879151 5.1664691 44.57413188 5.1716851 43.20947266 5.17700195 C41.82084707 5.1788662 40.43222083 5.18029007 39.04359436 5.18128967 C35.38241776 5.18511434 31.72128061 5.19494417 28.06011963 5.20599365 C24.32670628 5.21620888 20.59328657 5.22078753 16.85986328 5.22583008 C9.52976714 5.2365665 2.19970354 5.25364229 -5.13037109 5.2746582 C-5.12815048 5.88409271 -5.12592987 6.49352722 -5.12364197 7.12142944 C-5.101569 13.44756486 -5.08645604 19.77368938 -5.07543945 26.09985352 C-5.0704015 28.46281376 -5.06357101 30.82577088 -5.05493164 33.1887207 C-5.04284256 36.57935355 -5.0371375 39.96994529 -5.03271484 43.3605957 C-5.02755356 44.42208832 -5.02239227 45.48358093 -5.01707458 46.57723999 C-5.01699905 47.55810577 -5.01692352 48.53897156 -5.0168457 49.54956055 C-5.01462509 50.41559906 -5.01240448 51.28163757 -5.01011658 52.17391968 C-5.13037109 54.2746582 -5.13037109 54.2746582 -6.13037109 56.2746582 C-7.45037109 56.2746582 -8.77037109 56.2746582 -10.13037109 56.2746582 C-10.34985597 49.54912542 -10.5446313 42.82319901 -10.72241211 36.09643555 C-10.78575846 33.80916229 -10.85471671 31.52203717 -10.92944336 29.23510742 C-11.03600566 25.94383432 -11.12223524 22.65255265 -11.20458984 19.3605957 C-11.24194748 18.34162201 -11.27930511 17.32264832 -11.3177948 16.27279663 C-11.43295486 10.80955306 -11.26513699 6.9798771 -8.13037109 2.2746582 C-5.38731382 -0.46839907 -3.84059714 0.01554643 0 0 Z " fill="#C9DF8A" transform="translate(119.13037109375,29.725341796875)"/>
<path d="M0 0 C2.8125 1.4375 2.8125 1.4375 5 3 C5 3.66 5 4.32 5 5 C5.721875 5.226875 6.44375 5.45375 7.1875 5.6875 C10.53209313 7.24831013 12.51603959 9.3031287 15 12 C12.6875 12.625 12.6875 12.625 10 13 C9.01 12.34 8.02 11.68 7 11 C7 10.34 7 9.68 7 9 C4.64632287 8.3121764 4.64632287 8.3121764 2 8 C1.01 8.66 0.02 9.32 -1 10 C-1.66 9.34 -2.32 8.68 -3 8 C-3 7.01 -3 6.02 -3 5 C-3.33 6.32 -3.66 7.64 -4 9 C-4.66 9 -5.32 9 -6 9 C-6 20.55 -6 32.1 -6 44 C-3.525 43.505 -3.525 43.505 -1 43 C-0.896875 42.443125 -0.79375 41.88625 -0.6875 41.3125 C1.13221981 35.19162426 4.73245854 32.20480952 10 29 C13.78479413 27.01748879 15.88840051 26.82525729 20 28 C20 28.66 20 29.32 20 30 C22.64 30.33 25.28 30.66 28 31 C28.268125 31.9075 28.53625 32.815 28.8125 33.75 C29.90675495 36.74480303 31.10795583 38.50594178 33 41 C33 41.99 33 42.98 33 44 C33.99 44 34.98 44 36 44 C36 44.66 36 45.32 36 46 C21.81 46 7.62 46 -7 46 C-7 30.82 -7 15.64 -7 0 C-4.24779828 -1.37610086 -2.93781238 -0.81985462 0 0 Z " fill="#F5D64A" transform="translate(129,47)"/>
<path d="M0 0 C6 0 6 0 7.90625 1.87109375 C8.4321875 2.71800781 8.958125 3.56492187 9.5 4.4375 C10.07878906 5.34371094 10.65757812 6.24992187 11.25390625 7.18359375 C11.83011719 8.11300781 12.40632812 9.04242188 13 10 C14.14210191 11.66922588 15.28765118 13.33610112 16.4375 15 C19 18.74673629 19 18.74673629 19 21 C19.66 21 20.32 21 21 21 C20.99214478 20.09906616 20.99214478 20.09906616 20.98413086 19.17993164 C20.96341986 16.47413162 20.95035875 13.76834823 20.9375 11.0625 C20.92912109 10.11697266 20.92074219 9.17144531 20.91210938 8.19726562 C20.90727539 6.84858398 20.90727539 6.84858398 20.90234375 5.47265625 C20.89448853 4.22367554 20.89448853 4.22367554 20.88647461 2.94946289 C21 1 21 1 22 0 C23.99958364 -0.04080783 26.00045254 -0.04254356 28 0 C28.89114296 4.48271914 29.054391 8.58583401 28.87890625 13.1484375 C28.85529526 13.80582916 28.83168427 14.46322083 28.80735779 15.14053345 C28.73141555 17.2189477 28.64709817 19.29692192 28.5625 21.375 C28.50920952 22.79294796 28.45646973 24.21091673 28.40429688 25.62890625 C28.27589634 29.08620103 28.13998803 32.54315278 28 36 C22.46742174 36.36173447 22.46742174 36.36173447 20.40087891 34.76245117 C20.01335449 34.19502197 19.62583008 33.62759277 19.2265625 33.04296875 C18.79472656 32.42486328 18.36289063 31.80675781 17.91796875 31.16992188 C17.49128906 30.51572266 17.06460938 29.86152344 16.625 29.1875 C16.17511719 28.54490234 15.72523438 27.90230469 15.26171875 27.24023438 C12 22.45671068 12 22.45671068 12 19 C11.34 19 10.68 19 10 19 C9.01 17.35 8.02 15.7 7 14 C6.67 21.26 6.34 28.52 6 36 C4.02 36 2.04 36 0 36 C0 24.12 0 12.24 0 0 Z M21 21 C22 24 22 24 22 24 Z " fill="#7FA089" transform="translate(147,107)"/>
<path d="M0 0 C0.7425 -0.33 1.485 -0.66 2.25 -1 C6.70758535 -2.62094013 10.60775358 -1.46408214 15 0 C17.46610388 5.13703366 17.26755224 10.24676247 17.1875 15.8125 C17.18685547 16.68326172 17.18621094 17.55402344 17.18554688 18.45117188 C17.14059434 24.85940566 17.14059434 24.85940566 16 26 C13.5 26.125 13.5 26.125 11 26 C9.41596476 24.41596476 9.78025065 22.7228362 9.68359375 20.52734375 C9.64169922 19.62822266 9.59980469 18.72910156 9.55664062 17.80273438 C9.51732422 16.85720703 9.47800781 15.91167969 9.4375 14.9375 C9.39431641 13.98810547 9.35113281 13.03871094 9.30664062 12.06054688 C9.20020724 9.70718647 9.09818992 7.35371646 9 5 C6.58354218 4.83312552 6.58354218 4.83312552 4 5 C1.6031335 7.3968665 1.71718867 8.07028314 1.5859375 11.3515625 C1.54726562 12.20234375 1.50859375 13.053125 1.46875 13.9296875 C1.42234375 15.26386719 1.42234375 15.26386719 1.375 16.625 C1.33632812 17.5221875 1.29765625 18.419375 1.2578125 19.34375 C1.16340643 21.5622927 1.07783252 23.78082403 1 26 C-0.98 26 -2.96 26 -5 26 C-5.02505615 25.39937744 -5.0501123 24.79875488 -5.07592773 24.17993164 C-5.1915528 21.47388563 -5.31442936 18.76821717 -5.4375 16.0625 C-5.47681641 15.11697266 -5.51613281 14.17144531 -5.55664062 13.19726562 C-5.59853516 12.29814453 -5.64042969 11.39902344 -5.68359375 10.47265625 C-5.72025146 9.64000244 -5.75690918 8.80734863 -5.79467773 7.94946289 C-5.79367103 5.99661142 -5.79367103 5.99661142 -7 5 C-9.45809998 4.7499227 -9.45809998 4.7499227 -12 5 C-14.3968665 7.3968665 -14.28281133 8.07028314 -14.4140625 11.3515625 C-14.47207031 12.62773437 -14.47207031 12.62773437 -14.53125 13.9296875 C-14.5621875 14.81914062 -14.593125 15.70859375 -14.625 16.625 C-14.68300781 17.97078125 -14.68300781 17.97078125 -14.7421875 19.34375 C-14.83659357 21.5622927 -14.92216748 23.78082403 -15 26 C-16.66611905 26.042721 -18.33382885 26.04063832 -20 26 C-21.74545605 24.25454395 -21.1302316 21.83875783 -21.1328125 19.46875 C-21.13410156 18.34855469 -21.13539062 17.22835937 -21.13671875 16.07421875 C-21.13285156 14.89472656 -21.12898438 13.71523437 -21.125 12.5 C-21.12886719 11.32050781 -21.13273437 10.14101562 -21.13671875 8.92578125 C-21.13542969 7.80558594 -21.13414063 6.68539062 -21.1328125 5.53125 C-21.13168457 4.49548828 -21.13055664 3.45972656 -21.12939453 2.39257812 C-21 0 -21 0 -20 -1 C-17.66666667 -1 -15.33333333 -1 -13 -1 C-8.46089183 -2.51303606 -4.47150576 -1.49050192 0 0 Z " fill="#C88935" transform="translate(113,117)"/>
<path d="M0 0 C2.125 1.6875 2.125 1.6875 4.125 4.6875 C4.35546875 6.9140625 4.35546875 6.9140625 4.3125 9.3125 C4.30605469 10.10914062 4.29960937 10.90578125 4.29296875 11.7265625 C4.125 13.6875 4.125 13.6875 3.125 14.6875 C0.59903741 14.92403523 -1.90607207 15.10923692 -4.4375 15.25 C-5.50387695 15.31477539 -5.50387695 15.31477539 -6.59179688 15.38085938 C-8.35261912 15.48721777 -10.1137832 15.58788846 -11.875 15.6875 C-10.57714768 17.72743728 -10.57714768 17.72743728 -8.875 19.6875 C-5.83269177 20.18760524 -5.83269177 20.18760524 -2.875 19.6875 C-2.215 19.0275 -1.555 18.3675 -0.875 17.6875 C1.75 18.0625 1.75 18.0625 4.125 18.6875 C4.125 22.6875 4.125 22.6875 2.49609375 24.41015625 C-1.99225412 26.82809654 -6.92872796 26.2897137 -11.875 25.6875 C-15.36759415 23.87135104 -16.41554544 22.54375622 -18.25 19.125 C-19.36840528 12.97377096 -19.25969803 6.99533005 -16 1.5625 C-11.46918742 -2.43527581 -5.2909531 -2.41543511 0 0 Z M-10.125 4.5 C-12.08323168 6.48089513 -12.08323168 6.48089513 -11.875 8.6875 C-8.575 8.6875 -5.275 8.6875 -1.875 8.6875 C-2.92974665 4.99289124 -2.92974665 4.99289124 -5.75 2.625 C-8.08040243 2.47938149 -8.08040243 2.47938149 -10.125 4.5 Z " fill="#8DB499" transform="translate(241.875,117.3125)"/>
<path d="M0 0 C3.10448833 2.92187137 4.36437035 5.82002603 5.125 10 C5.07194885 13.39045049 4.69315517 16.65952141 4.125 20 C3.465 20 2.805 20 2.125 20 C2.125 20.99 2.125 21.98 2.125 23 C0.43861018 25.43589641 -0.74735339 25.96518729 -3.625 26.75 C-7.38653899 27.03934915 -10.21905179 26.99707679 -13.875 26 C-17.06838336 23.19244959 -19.68455586 19.91068544 -20.11328125 15.609375 C-20.27019616 9.56402171 -20.17988732 5.66362793 -15.875 1 C-10.88982725 -2.03081782 -5.41356728 -1.88297992 0 0 Z M-12.875 6 C-14.49533144 8.9165966 -14.88669953 10.71336159 -14.75 14.0625 C-13.72765932 17.4946437 -12.77150372 18.90808065 -9.875 21 C-7.05485373 21.48148839 -5.61129005 21.42073717 -3.125 20 C-1.17324814 16.87719703 -0.73397038 13.61740963 -0.875 10 C-2.01274328 7.56936663 -2.99313896 5.88186104 -4.875 4 C-8.59724599 3.70613847 -9.65286243 3.85190829 -12.875 6 Z " fill="#86A18F" transform="translate(199.875,117)"/>
<path d="M0 0 C1.98 0 3.96 0 6 0 C6.33 6.93 6.66 13.86 7 21 C10.465 20.505 10.465 20.505 14 20 C14.33 13.73 14.66 7.46 15 1 C20 0 20 0 21 0 C21 8.91 21 17.82 21 27 C6.45403696 28.3594358 6.45403696 28.3594358 2 26 C0 24 0 24 -0.22705078 21.56982422 C-0.21657715 20.5748291 -0.20610352 19.57983398 -0.1953125 18.5546875 C-0.18886719 17.47832031 -0.18242188 16.40195313 -0.17578125 15.29296875 C-0.15902344 14.16503906 -0.14226562 13.03710938 -0.125 11.875 C-0.11597656 10.73933594 -0.10695313 9.60367188 -0.09765625 8.43359375 C-0.07403098 5.62218701 -0.04109013 2.81119702 0 0 Z " fill="#BC8232" transform="translate(66,116)"/>
<path d="M0 0 C0 10.23 0 20.46 0 31 C4.62 30.67 9.24 30.34 14 30 C14.66 30.33 15.32 30.66 16 31 C16 32.65 16 34.3 16 36 C8.41 36 0.82 36 -7 36 C-7 24.12 -7 12.24 -7 0 C-5 -1 -5 -1 0 0 Z " fill="#9C7639" transform="translate(47,107)"/>
<path d="M0 0 C0.99 0.33 1.98 0.66 3 1 C1.02 1.99 1.02 1.99 -1 3 C-1 18.18 -1 33.36 -1 49 C14.51 48.67 30.02 48.34 46 48 C45.67 34.47 45.34 20.94 45 7 C44.01 7.66 43.02 8.32 42 9 C40 9 38 9 36 9 C31.33700216 10.92602085 28.48948931 13.41620017 25 17 C24.01 17.33 23.02 17.66 22 18 C21.505 15.525 21.505 15.525 21 13 C23.68331053 11.38874818 26.37237074 9.78733701 29.0625 8.1875 C30.19075195 7.50977539 30.19075195 7.50977539 31.34179688 6.81835938 C35.79364497 4.17808583 40.19280486 1.92160125 45 0 C46.99008219 1.63733188 47.91598408 2.51981432 48.36749268 5.10037231 C48.36384705 5.90787933 48.36020142 6.71538635 48.35644531 7.54736328 C48.35944641 8.46486359 48.36244751 9.38236389 48.36553955 10.32766724 C48.35319275 11.31524017 48.34084595 12.30281311 48.328125 13.3203125 C48.32625183 14.33471405 48.32437866 15.3491156 48.32244873 16.39425659 C48.31572607 18.53777352 48.30180739 20.68127814 48.28125 22.82470703 C48.25005748 26.11893005 48.24027622 29.41267512 48.234375 32.70703125 C48.22520683 34.78646421 48.21483165 36.86589228 48.203125 38.9453125 C48.19675018 40.4327446 48.19675018 40.4327446 48.19024658 41.95022583 C48.18063904 42.86142181 48.17103149 43.7726178 48.16113281 44.71142578 C48.15430481 45.51734161 48.14747681 46.32325745 48.14044189 47.15359497 C48 49 48 49 47 50 C45.4651703 50.09319449 43.92607918 50.117458 42.38842773 50.11352539 C41.40748642 50.11344986 40.4265451 50.11337433 39.4158783 50.11329651 C38.3492244 50.10813522 37.2825705 50.10297394 36.18359375 50.09765625 C34.55430687 50.09553383 34.55430687 50.09553383 32.8921051 50.09336853 C29.40720925 50.08775048 25.92237658 50.07519492 22.4375 50.0625 C20.08138113 50.05748733 17.72526126 50.05292402 15.36914062 50.04882812 C9.57940536 50.03777519 3.78970719 50.02101951 -2 50 C-2.0505894 43.20071581 -2.08568667 36.4014799 -2.10986328 29.60205078 C-2.11993892 27.28757921 -2.13359975 24.97312041 -2.15087891 22.65869141 C-2.17505865 19.33753307 -2.1864673 16.0165426 -2.1953125 12.6953125 C-2.20563507 11.65569366 -2.21595764 10.61607483 -2.22659302 9.54495239 C-2.22674408 8.58410736 -2.22689514 7.62326233 -2.22705078 6.63330078 C-2.231492 5.78502716 -2.23593323 4.93675354 -2.24050903 4.06277466 C-2 2 -2 2 0 0 Z " fill="#978234" transform="translate(123,44)"/>
<path d="M0 0 C1.98 0 3.96 0 6 0 C6 1.98 6 3.96 6 6 C7.65 6 9.3 6 11 6 C11 7.65 11 9.3 11 11 C9.35 11 7.7 11 6 11 C6 16.61 6 22.22 6 28 C7.65 28 9.3 28 11 28 C11 29.65 11 31.3 11 33 C3.47608411 33.37002865 3.47608411 33.37002865 1.40429688 31.75976562 C-0.34669115 29.56555115 -0.41832776 28.33383275 -0.51171875 25.55078125 C-0.54716797 24.70322266 -0.58261719 23.85566406 -0.61914062 22.98242188 C-0.64169922 22.10134766 -0.66425781 21.22027344 -0.6875 20.3125 C-0.73874023 18.97348633 -0.73874023 18.97348633 -0.79101562 17.60742188 C-0.87345648 15.40507329 -0.94261551 13.20312062 -1 11 C-2.32 10.67 -3.64 10.34 -5 10 C-4.67 8.68 -4.34 7.36 -4 6 C-2.68 6 -1.36 6 0 6 C0 4.02 0 2.04 0 0 Z " fill="#86A892" transform="translate(210,110)"/>
<path d="M0 0 C4.62878473 0.70608581 7.5377852 1.28015686 11.6875 3.5625 C12.6775 6.5325 13.6675 9.5025 14.6875 12.5625 C6.7675 12.5625 -1.1525 12.5625 -9.3125 12.5625 C-8.24020404 6.12872423 -7.03950755 1.19538807 0 0 Z " fill="#F6E48C" transform="translate(144.3125,80.4375)"/>
<path d="M0 0 C3.46941546 0.45822468 6.67395049 0.89131683 10 2 C12.46610388 7.13703366 12.26755224 12.24676247 12.1875 17.8125 C12.18685547 18.68326172 12.18621094 19.55402344 12.18554688 20.45117188 C12.14059434 26.85940566 12.14059434 26.85940566 11 28 C8.5 28.125 8.5 28.125 6 28 C4.41596476 26.41596476 4.78025065 24.7228362 4.68359375 22.52734375 C4.64169922 21.62822266 4.59980469 20.72910156 4.55664062 19.80273438 C4.51732422 18.85720703 4.47800781 17.91167969 4.4375 16.9375 C4.39431641 15.98810547 4.35113281 15.03871094 4.30664062 14.06054688 C4.20020724 11.70718647 4.09818992 9.35371646 4 7 C0.28400809 6.79913557 -0.77208445 6.8480563 -4 9 C-4.33 7.68 -4.66 6.36 -5 5 C-2.94921875 4.77213542 -0.8984375 4.54427083 1.15234375 4.31640625 C3.01140229 4.18113386 3.01140229 4.18113386 4 3 C2.68 2.67 1.36 2.34 0 2 C0 1.34 0 0.68 0 0 Z " fill="#AC8033" transform="translate(118,115)"/>
<path d="M0 0 C0.99 0.33 1.98 0.66 3 1 C3 1.66 3 2.32 3 3 C3.99 3.33 4.98 3.66 6 4 C5.01 4.495 5.01 4.495 4 5 C1.84449964 8.97065856 1.77742532 11.6739665 3 16 C4.64624552 18.46936828 5.52575854 18.9027197 8.4375 19.5 C12.02645529 18.79971604 13.01077261 16.94700354 15 14 C14.25 18.75 14.25 18.75 12 21 C9.375 21.625 9.375 21.625 7 22 C7 22.33 7 22.66 7 23 C9.64 23.33 12.28 23.66 15 24 C11.1588003 26.22981207 8.51591654 26.26067008 4.19140625 25.68359375 C0.41710906 24.50622832 -0.87478311 22.25423837 -3 19 C-4.9687409 15.0625182 -4.46471449 10.29106498 -4 6 C-2.92640635 3.52932815 -1.78251861 2.06103714 0 0 Z " fill="#83A48F" transform="translate(184,118)"/>
<path d="M0 0 C1.98 0 3.96 0 6 0 C6.87554066 6.019342 7.10976587 11.92729308 7.125 18 C7.13176758 19.14940063 7.13176758 19.14940063 7.13867188 20.32202148 C7.12372938 25.87627062 7.12372938 25.87627062 6 27 C4.02 27 2.04 27 0 27 C0 18.09 0 9.18 0 0 Z " fill="#DA9334" transform="translate(135,116)"/>
<path d="M0 0 C0.99 0 1.98 0 3 0 C3.33 9.9 3.66 19.8 4 30 C8.95 30 13.9 30 19 30 C19 30.99 19 31.98 19 33 C12.4 33 5.8 33 -1 33 C-1.02293649 28.62167956 -1.04285548 24.24356699 -1.05493164 19.86523438 C-1.05996514 18.37531834 -1.06679242 16.88540726 -1.07543945 15.39550781 C-1.08754805 13.25584696 -1.09323807 11.11625132 -1.09765625 8.9765625 C-1.10289307 7.68830566 -1.10812988 6.40004883 -1.11352539 5.07275391 C-1 2 -1 2 0 0 Z " fill="#DD9331" transform="translate(42,109)"/>
<path d="M0 0 C2.8125 1.4375 2.8125 1.4375 5 3 C5 3.66 5 4.32 5 5 C5.721875 5.226875 6.44375 5.45375 7.1875 5.6875 C10.53209313 7.24831013 12.51603959 9.3031287 15 12 C12.6875 12.625 12.6875 12.625 10 13 C9.01 12.34 8.02 11.68 7 11 C7 10.34 7 9.68 7 9 C4.64632287 8.3121764 4.64632287 8.3121764 2 8 C1.01 8.66 0.02 9.32 -1 10 C-1.66 9.34 -2.32 8.68 -3 8 C-3 7.01 -3 6.02 -3 5 C-3.33 6.32 -3.66 7.64 -4 9 C-4.66 9 -5.32 9 -6 9 C-6 21.21 -6 33.42 -6 46 C-6.33 46 -6.66 46 -7 46 C-7 30.82 -7 15.64 -7 0 C-4.24779828 -1.37610086 -2.93781238 -0.81985462 0 0 Z " fill="#ECC239" transform="translate(129,47)"/>
<path d="M0 0 C0.33 0 0.66 0 1 0 C1.02505615 0.77714355 1.0501123 1.55428711 1.07592773 2.35498047 C1.19166796 5.86183069 1.31449352 9.36839745 1.4375 12.875 C1.47681641 14.09832031 1.51613281 15.32164063 1.55664062 16.58203125 C1.59853516 17.74863281 1.64042969 18.91523437 1.68359375 20.1171875 C1.72025146 21.19597168 1.75690918 22.27475586 1.79467773 23.38623047 C1.83376643 25.98069536 1.83376643 25.98069536 3 28 C3.33 18.76 3.66 9.52 4 0 C4.33 0 4.66 0 5 0 C5.02529479 6.79930835 5.04284349 13.59860463 5.05493164 20.39794922 C5.05996943 22.71240696 5.06679981 25.0268615 5.07543945 27.34130859 C5.08752924 30.6624429 5.09323375 33.98353525 5.09765625 37.3046875 C5.10281754 38.34430634 5.10797882 39.38392517 5.11329651 40.45504761 C5.11337204 41.41589264 5.11344757 42.37673767 5.11352539 43.36669922 C5.115746 44.21497284 5.11796661 45.06324646 5.12025452 45.93722534 C5 48 5 48 4 50 C2.68 50 1.36 50 0 50 C0 33.5 0 17 0 0 Z " fill="#6E7E4E" transform="translate(178,36)"/>
<path d="M0 0 C5.61 0 11.22 0 17 0 C17 0.33 17 0.66 17 1 C12.05 1.33 7.1 1.66 2 2 C2.99 3.32 3.98 4.64 5 6 C8.04230823 6.50010524 8.04230823 6.50010524 11 6 C11.66 5.34 12.32 4.68 13 4 C15.625 4.375 15.625 4.375 18 5 C18 9 18 9 16.37109375 10.72265625 C11.88836972 13.13756689 6.94033112 12.61416685 2 12 C-1.29275395 10.19221352 -2.54748363 9.25312226 -3.8125 5.75 C-3.874375 5.1725 -3.93625 4.595 -4 4 C-3.01 4 -2.02 4 -1 4 C-0.67 2.68 -0.34 1.36 0 0 Z " fill="#82A48D" transform="translate(228,131)"/>
<path d="M0 0 C0.33 0 0.66 0 1 0 C1.02467467 5.65999023 1.04284788 11.31994932 1.05493164 16.97998047 C1.05996787 18.90641831 1.06679712 20.83285231 1.07543945 22.75927734 C1.08753608 25.52442368 1.09323533 28.28951958 1.09765625 31.0546875 C1.10281754 31.9193161 1.10797882 32.7839447 1.11329651 33.67477417 C1.11387171 39.77225659 1.11387171 39.77225659 0 42 C-1.32 42 -2.64 42 -4 42 C-4 34.41 -4 26.82 -4 19 C-3.34 19.33 -2.68 19.66 -2 20 C-1.34 13.4 -0.68 6.8 0 0 Z " fill="#899458" transform="translate(113,44)"/>
<path d="M0 0 C-1.625 5.75 -1.625 5.75 -5 8 C-7 8 -9 8 -11 8 C-15.66299784 9.92602085 -18.51051069 12.41620017 -22 16 C-22.99 16.33 -23.98 16.66 -25 17 C-25.33 15.35 -25.66 13.7 -26 12 C-23.29363125 10.39250173 -20.5845582 8.78961541 -17.875 7.1875 C-17.11445313 6.73568359 -16.35390625 6.28386719 -15.5703125 5.81835938 C-3.65446394 -1.21815465 -3.65446394 -1.21815465 0 0 Z " fill="#EB9037" transform="translate(170,45)"/>
<path d="M0 0 C0 0.33 0 0.66 0 1 C-3.96 1.66 -7.92 2.32 -12 3 C-12 2.34 -12 1.68 -12 1 C-12.99 1 -13.98 1 -15 1 C-15 8.92 -15 16.84 -15 25 C-14.01 25 -13.02 25 -12 25 C-12 19.06 -12 13.12 -12 7 C-10.68 6.34 -9.36 5.68 -8 5 C-8.99 6.485 -8.99 6.485 -10 8 C-10.36433373 10.12337771 -10.36433373 10.12337771 -10.4140625 12.44921875 C-10.45273438 13.29677734 -10.49140625 14.14433594 -10.53125 15.01757812 C-10.57765625 16.33918945 -10.57765625 16.33918945 -10.625 17.6875 C-10.66367188 18.58017578 -10.70234375 19.47285156 -10.7421875 20.39257812 C-10.83640218 22.5948462 -10.92201588 24.79710722 -11 27 C-12.66611905 27.042721 -14.33382885 27.04063832 -16 27 C-17.74545605 25.25454395 -17.1302316 22.83875783 -17.1328125 20.46875 C-17.13410156 19.34855469 -17.13539062 18.22835937 -17.13671875 17.07421875 C-17.13285156 15.89472656 -17.12898438 14.71523437 -17.125 13.5 C-17.12886719 12.32050781 -17.13273437 11.14101562 -17.13671875 9.92578125 C-17.13542969 8.80558594 -17.13414063 7.68539062 -17.1328125 6.53125 C-17.13168457 5.49548828 -17.13055664 4.45972656 -17.12939453 3.39257812 C-17 1 -17 1 -16 0 C-13.66666667 0 -11.33333333 0 -9 0 C-5.52176885 -1.15941038 -3.54104422 -0.70820884 0 0 Z " fill="#A87A3A" transform="translate(109,116)"/>
<path d="M0 0 C0.66 0 1.32 0 2 0 C2.02934711 3.49998201 2.04691445 6.99993179 2.0625 10.5 C2.07087891 11.48226562 2.07925781 12.46453125 2.08789062 13.4765625 C2.10659124 19.08674757 1.838879 24.45150899 1 30 C-1.10338367 28.30297157 -1.92975157 27.43033498 -2.37231445 24.71923828 C-2.3693335 23.84509277 -2.36635254 22.97094727 -2.36328125 22.0703125 C-2.36263672 21.10996094 -2.36199219 20.14960937 -2.36132812 19.16015625 C-2.34521484 18.15855469 -2.32910156 17.15695313 -2.3125 16.125 C-2.31572266 15.13113281 -2.31894531 14.13726562 -2.32226562 13.11328125 C-2.28606197 8.19616709 -2.04682274 4.53774336 0 0 Z " fill="#C8DA8B" transform="translate(111,36)"/>
<path d="M0 0 C2.9555377 2.75170751 5.11563315 5.41970299 7 9 C7 9.66 7 10.32 7 11 C7.66 11 8.32 11 9 11 C9 12.33333333 9 13.66666667 9 15 C9.32380126 16.33568021 9.65657551 17.66923011 10 19 C9.34 19 8.68 19 8 19 C7.67 19.99 7.34 20.98 7 22 C5.82479354 20.40207898 4.66008753 18.79643092 3.5 17.1875 C2.8503125 16.29417969 2.200625 15.40085938 1.53125 14.48046875 C0 12 0 12 0 9 C-0.66 9 -1.32 9 -2 9 C-2 8.34 -2 7.68 -2 7 C-1.01 6.67 -0.02 6.34 1 6 C0.67 5.67 0.34 5.34 0 5 C-0.04063832 3.33382885 -0.042721 1.66611905 0 0 Z " fill="#7E9C87" transform="translate(159,117)"/>
<path d="M0 0 C0.66 0.33 1.32 0.66 2 1 C1.01 2.485 1.01 2.485 0 4 C1.32 4 2.64 4 4 4 C4 6.97 4 9.94 4 13 C3.34 13 2.68 13 2 13 C2 13.99 2 14.98 2 16 C-1.31371 18.20914 -2.3446021 18.22481553 -6.1875 18.125 C-7.08855469 18.10695312 -7.98960937 18.08890625 -8.91796875 18.0703125 C-9.60503906 18.04710937 -10.29210937 18.02390625 -11 18 C-11 17.01 -11 16.02 -11 15 C-9.329375 14.814375 -9.329375 14.814375 -7.625 14.625 C-3.96896323 14.3534187 -3.96896323 14.3534187 -2 12 C-1.57446839 9.37023476 -1.57446839 9.37023476 -1.4375 6.4375 C-1.09722222 1.09722222 -1.09722222 1.09722222 0 0 Z " fill="#7FA28D" transform="translate(200,124)"/>
<path d="M0 0 C1.32 0.33 2.64 0.66 4 1 C6.00946222 0.72949547 8.01354224 0.40632091 10 0 C9.67 0.99 9.34 1.98 9 3 C8.17113281 3.36738281 7.34226562 3.73476562 6.48828125 4.11328125 C3.86754152 5.69662674 3.86754152 5.69662674 3.49755859 7.92333984 C3.28201812 10.35395733 3.204484 12.74746532 3.1875 15.1875 C3.16236328 16.03248047 3.13722656 16.87746094 3.11132812 17.74804688 C3.05247266 19.8315305 3.02337005 21.91581627 3 24 C2.01 24 1.02 24 0 24 C0 16.08 0 8.16 0 0 Z " fill="#DE9431" transform="translate(94,117)"/>
<path d="M0 0 C1.32 0 2.64 0 4 0 C4 11.55 4 23.1 4 35 C3.67 35 3.34 35 3 35 C0.75509807 27.69950591 0.56765825 20.60197359 0.375 13 C0.33632812 11.74832031 0.29765625 10.49664062 0.2578125 9.20703125 C0.16410659 6.1381628 0.0783893 3.06929147 0 0 Z " fill="#C5D988" transform="translate(178,35)"/>
<path d="M0 0 C3.06393013 -0.25532751 4.63233212 -0.21861333 7.3125 1.375 C7.869375 1.91125 8.42625 2.4475 9 3 C9 3.66 9 4.32 9 5 C7.34385343 5.38218767 5.67542976 5.71395102 4 6 C3.505 5.505 3.505 5.505 3 5 C1.06693502 4.90603943 -0.86958838 4.88256483 -2.80493164 4.88647461 C-4.04614273 4.88655014 -5.28735382 4.88662567 -6.56617737 4.88670349 C-7.9308374 4.89181089 -9.29549702 4.8970269 -10.66015625 4.90234375 C-12.04878183 4.904208 -13.43740807 4.90563187 -14.82603455 4.90663147 C-18.48721115 4.91045613 -22.1483483 4.92028597 -25.80950928 4.93133545 C-29.54292263 4.94155068 -33.27634234 4.94612933 -37.00976562 4.95117188 C-44.33986177 4.96190829 -51.66992536 4.97898409 -59 5 C-59 4.01 -59 3.02 -59 2 C-38.21 2.33 -17.42 2.66 4 3 C4 2.34 4 1.68 4 1 C2.68 0.67 1.36 0.34 0 0 Z " fill="#9AAE6B" transform="translate(173,30)"/>
<path d="M0 0 C0.33 0.66 0.66 1.32 1 2 C1.99 1.67 2.98 1.34 4 1 C4 8.26 4 15.52 4 23 C2.68 23 1.36 23 0 23 C0 15.41 0 7.82 0 0 Z " fill="#8FB59C" transform="translate(148,120)"/>
<path d="M0 0 C3.125 1 3.125 1 5 2 C5 2.66 5 3.32 5 4 C4.10796875 3.86980469 3.2159375 3.73960938 2.296875 3.60546875 C1.12640625 3.46753906 -0.0440625 3.32960938 -1.25 3.1875 C-2.41015625 3.03667969 -3.5703125 2.88585937 -4.765625 2.73046875 C-8.15559884 2.66797635 -8.15559884 2.66797635 -10.34375 5.28125 C-12.07860987 8.12903885 -13.10558171 10.79500111 -14 14 C-15.65 14 -17.3 14 -19 14 C-17.82456899 9.26734357 -16.60227261 5.71978922 -13.4375 1.9375 C-8.82907071 -0.65997833 -5.1757387 -0.68033837 0 0 Z " fill="#F5DE6C" transform="translate(149,79)"/>
<path d="M0 0 C1.98 0 3.96 0 6 0 C6.33 1.32 6.66 2.64 7 4 C6.34 4 5.68 4 5 4 C5 3.01 5 2.02 5 1 C4.01 1.33 3.02 1.66 2 2 C2 9.59 2 17.18 2 25 C2.66 25 3.32 25 4 25 C4.33 19.39 4.66 13.78 5 8 C5.66 8.33 6.32 8.66 7 9 C7.02684312 11.81256281 7.04676188 14.62487241 7.0625 17.4375 C7.07087891 18.23994141 7.07925781 19.04238281 7.08789062 19.86914062 C7.0965143 21.91295221 7.0522815 23.95683902 7 26 C6.67 26.33 6.34 26.66 6 27 C4.02 27 2.04 27 0 27 C0 18.09 0 9.18 0 0 Z " fill="#9F793A" transform="translate(135,116)"/>
<path d="M0 0 C0.66 0 1.32 0 2 0 C2.02705308 2.41674224 2.04686438 4.8331794 2.0625 7.25 C2.07087891 7.93191406 2.07925781 8.61382812 2.08789062 9.31640625 C2.10428392 12.69342554 2.05628768 15.77291639 1 19 C0.01 19 -0.98 19 -2 19 C-3.01819948 15.60052755 -3.19779749 12.41607017 -3.25 8.875 C-3.27578125 7.82054687 -3.3015625 6.76609375 -3.328125 5.6796875 C-3.21984375 4.79539062 -3.1115625 3.91109375 -3 3 C-2.01 2.34 -1.02 1.68 0 1 C0 0.67 0 0.34 0 0 Z " fill="#90B79B" transform="translate(214,122)"/>
<path d="M0 0 C3.5 0.25 3.5 0.25 5.5 2.25 C5.5 3.9 5.5 5.55 5.5 7.25 C1.54 7.25 -2.42 7.25 -6.5 7.25 C-5.12318841 0.36594203 -5.12318841 0.36594203 0 0 Z " fill="#F8F2D6" transform="translate(145.5,85.75)"/>
<path d="M0 0 C2 3 2 3 2 5 C2.66 5 3.32 5 4 5 C4.33 3.68 4.66 2.36 5 1 C5 6.28 5 11.56 5 17 C3.35 17 1.7 17 0 17 C0 11.39 0 5.78 0 0 Z " fill="#DB9538" transform="translate(109,125)"/>
<path d="M0 0 C1.32 0 2.64 0 4 0 C4 7.26 4 14.52 4 22 C3.01 22 2.02 22 1 22 C0.67 14.74 0.34 7.48 0 0 Z " fill="#E29330" transform="translate(124,119)"/>
<path d="M0 0 C1.65 0 3.3 0 5 0 C5 5.61 5 11.22 5 17 C4.01 15.68 3.02 14.36 2 13 C1.34 13.99 0.68 14.98 0 16 C0 10.72 0 5.44 0 0 Z " fill="#C99752" transform="translate(66,116)"/>
<path d="M0 0 C2.58148508 0.35606691 3.82045747 0.83328193 5.75 2.625 C7.43754802 5.83134123 7.20576047 8.43348514 7 12 C6.71125 11.360625 6.4225 10.72125 6.125 10.0625 C5.17176549 7.84793921 5.17176549 7.84793921 3 7 C2.67 7.99 2.34 8.98 2 10 C-1.96 10 -5.92 10 -10 10 C-9.67 9.01 -9.34 8.02 -9 7 C-9 7.66 -9 8.32 -9 9 C-5.7 9 -2.4 9 1 9 C0.649375 8.071875 0.29875 7.14375 -0.0625 6.1875 C-1 3 -1 3 0 0 Z " fill="#6C8B7B" transform="translate(239,117)"/>
<path d="M0 0 C0.99 0.66 1.98 1.32 3 2 C3.33 3.98 3.66 5.96 4 8 C-0.62 8 -5.24 8 -10 8 C-9.67 7.34 -9.34 6.68 -9 6 C-9 5.34 -9 4.68 -9 4 C-6.36 4 -3.72 4 -1 4 C-0.67 2.68 -0.34 1.36 0 0 Z " fill="#90B49E" transform="translate(242,123)"/>
<path d="M0 0 C0.33 0 0.66 0 1 0 C1 8.91 1 17.82 1 27 C-0.65 27 -2.3 27 -4 27 C-4 26.34 -4 25.68 -4 25 C-3.01 25 -2.02 25 -1 25 C-1.00523682 24.27820557 -1.01047363 23.55641113 -1.01586914 22.81274414 C-1.03657358 19.56267151 -1.04963918 16.31261272 -1.0625 13.0625 C-1.07087891 11.92619141 -1.07925781 10.78988281 -1.08789062 9.61914062 C-1.09111328 8.53955078 -1.09433594 7.45996094 -1.09765625 6.34765625 C-1.10289307 5.34742432 -1.10812988 4.34719238 -1.11352539 3.31665039 C-1 1 -1 1 0 0 Z " fill="#BE8A43" transform="translate(86,116)"/>
<path d="M0 0 C1.8871875 0.0309375 1.8871875 0.0309375 3.8125 0.0625 C3.4825 1.7125 3.1525 3.3625 2.8125 5.0625 C2.049375 5.18625 1.28625 5.31 0.5 5.4375 C-2.39017136 5.94352792 -2.39017136 5.94352792 -5.1875 8.0625 C-5.1875 6.7425 -5.1875 5.4225 -5.1875 4.0625 C-6.8375 4.3925 -8.4875 4.7225 -10.1875 5.0625 C-7.29994867 0.79992422 -5.07715232 -0.08323201 0 0 Z " fill="#7B9A88" transform="translate(235.1875,115.9375)"/>
<path d="M0 0 C-2.05811498 5.55691045 -7.38512193 8.6275891 -12 12 C-12.66 11.34 -13.32 10.68 -14 10 C-13.96484375 8.078125 -13.96484375 8.078125 -13 6 C-10.56640625 4.296875 -10.56640625 4.296875 -7.5625 2.75 C-6.57378906 2.22921875 -5.58507812 1.7084375 -4.56640625 1.171875 C-2 0 -2 0 0 0 Z " fill="#DB9937" transform="translate(158,50)"/>
<path d="M0 0 C0.99 0.66 1.98 1.32 3 2 C3.6875 5.625 3.6875 5.625 4 9 C3.01 9 2.02 9 1 9 C0.34 7.02 -0.32 5.04 -1 3 C-3.31 3 -5.62 3 -8 3 C-8.99 4.98 -9.98 6.96 -11 9 C-11.66 9 -12.32 9 -13 9 C-12.66916395 6.02247554 -12.12584648 4.18625279 -10.4375 1.6875 C-6.7850399 -0.84112622 -4.39995628 -0.41904345 0 0 Z " fill="#F6ECB4" transform="translate(150,84)"/>
<path d="M0 0 C1.32 0 2.64 0 4 0 C4 0.66 4 1.32 4 2 C3.01 2.33 2.02 2.66 1 3 C1 3.99 1 4.98 1 6 C-2.96 6 -6.92 6 -11 6 C-11 5.34 -11 4.68 -11 4 C-10.28972656 3.79503906 -9.57945312 3.59007812 -8.84765625 3.37890625 C-7.92855469 3.10949219 -7.00945312 2.84007812 -6.0625 2.5625 C-4.68771484 2.16224609 -4.68771484 2.16224609 -3.28515625 1.75390625 C-1.0597507 1.20973949 -1.0597507 1.20973949 0 0 Z " fill="#86A493" transform="translate(241,137)"/>
<path d="M0 0 C3.11020134 2.54471018 4.00133026 5.15896252 5 9 C5.125 11.875 5.125 11.875 5 14 C4.67 12.68 4.34 11.36 4 10 C2.68 10 1.36 10 0 10 C0 9.01 0 8.02 0 7 C-0.66 7.66 -1.32 8.32 -2 9 C-2.66 7.35 -3.32 5.7 -4 4 C-2.68 2.68 -1.36 1.36 0 0 Z " fill="#749C86" transform="translate(200,118)"/>
<path d="M0 0 C1.65 0.33 3.3 0.66 5 1 C5.33 2.65 5.66 4.3 6 6 C4.35 6.66 2.7 7.32 1 8 C0.01 7.01 -0.98 6.02 -2 5 C-1.34 3.35 -0.68 1.7 0 0 Z " fill="#A17931" transform="translate(136,106)"/>
<path d="M0 0 C0.6875 1.8125 0.6875 1.8125 1 4 C-0.64504011 6.46756016 -1.80299352 6.94960299 -4.6875 7.6875 C-5.8321875 7.8421875 -5.8321875 7.8421875 -7 8 C-7 8.33 -7 8.66 -7 9 C-4.36 9.33 -1.72 9.66 1 10 C-2.1749094 11.9078584 -4.10585211 12.1609041 -7.75 11.625 C-8.54921875 11.51414063 -9.3484375 11.40328125 -10.171875 11.2890625 C-11.07679688 11.14597656 -11.07679688 11.14597656 -12 11 C-12.33 10.01 -12.66 9.02 -13 8 C-11 6 -11 6 -8 5 C-7.175 5.0825 -6.35 5.165 -5.5 5.25 C-4.675 5.1675 -3.85 5.085 -3 5 C-1.1375562 2.59141286 -1.1375562 2.59141286 0 0 Z " fill="#698878" transform="translate(198,132)"/>
<path d="M0 0 C5.44208234 0.34013015 8.93668198 3.70296528 13 7 C12.67 7.66 12.34 8.32 12 9 C7.25 8.125 7.25 8.125 5 7 C4.67 6.01 4.34 5.02 4 4 C2.70644173 2.62804426 1.37701298 1.28817344 0 0 Z " fill="#DECC78" transform="translate(131,51)"/>
<path d="M0 0 C0.66 0 1.32 0 2 0 C4.30672095 3.46008142 4.48134006 5.92481479 5 10 C5.33 10.66 5.66 11.32 6 12 C4.35 12 2.7 12 1 12 C-0.125 10.375 -0.125 10.375 -1 8 C-0.125 4.75 -0.125 4.75 1 2 C0.34 1.67 -0.32 1.34 -1 1 C-0.67 0.67 -0.34 0.34 0 0 Z " fill="#83A58F" transform="translate(155,112)"/>
<path d="M0 0 C0.33 0 0.66 0 1 0 C1.309375 0.94875 1.61875 1.8975 1.9375 2.875 C2.87394742 5.86080408 2.87394742 5.86080408 4 8 C6.80980673 8.69227032 6.80980673 8.69227032 10.0625 9.125 C11.71958984 9.37636719 11.71958984 9.37636719 13.41015625 9.6328125 C14.26480469 9.75398437 15.11945313 9.87515625 16 10 C16 10.33 16 10.66 16 11 C6.41951088 12.54456687 6.41951088 12.54456687 2 10 C0 8 0 8 -0.1953125 6.0546875 C-0.13020833 4.03645833 -0.06510417 2.01822917 0 0 Z " fill="#916A36" transform="translate(66,132)"/>
<path d="M0 0 C2.66735273 2.48952921 4.55746343 4.63408134 6 8 C5.34 8.66 4.68 9.32 4 10 C3.01 10 2.02 10 1 10 C0.67 10.66 0.34 11.32 0 12 C0 11.01 0 10.02 0 9 C-0.66 9 -1.32 9 -2 9 C-2 8.34 -2 7.68 -2 7 C-1.01 6.67 -0.02 6.34 1 6 C0.67 5.67 0.34 5.34 0 5 C-0.04063832 3.33382885 -0.042721 1.66611905 0 0 Z " fill="#769680" transform="translate(159,117)"/>
<path d="M0 0 C0.33 0.99 0.66 1.98 1 3 C2.98 3 4.96 3 7 3 C7.66 4.32 8.32 5.64 9 7 C6.525 8.485 6.525 8.485 4 10 C0 4.5 0 4.5 0 0 Z " fill="#799986" transform="translate(180,131)"/>
<path d="M0 0 C5.61 0 11.22 0 17 0 C17 0.33 17 0.66 17 1 C15.39318359 1.07347656 15.39318359 1.07347656 13.75390625 1.1484375 C12.35674361 1.22345294 10.9596095 1.2990013 9.5625 1.375 C8.85544922 1.4059375 8.14839844 1.436875 7.41992188 1.46875 C5.60760812 1.57280629 3.80182012 1.77919892 2 2 C0.85773284 4.28453433 -0.06253473 6.62508799 -1 9 C-2.5 7.625 -2.5 7.625 -4 6 C-4 5.34 -4 4.68 -4 4 C-3.01 4 -2.02 4 -1 4 C-0.67 2.68 -0.34 1.36 0 0 Z " fill="#3B4E42" transform="translate(228,131)"/>
<path d="M0 0 C2.97 0.495 2.97 0.495 6 1 C6 2.65 6 4.3 6 6 C3.36 6 0.72 6 -2 6 C-2 5.34 -2 4.68 -2 4 C-1.34 4 -0.68 4 0 4 C0 2.68 0 1.36 0 0 Z " fill="#7E9C8D" transform="translate(215,137)"/>
<path d="M0 0 C0.53625 0.185625 1.0725 0.37125 1.625 0.5625 C4.61990614 1.11419324 7.03745829 0.60597444 10 0 C9 3 9 3 5.9375 4.6875 C4.968125 5.120625 3.99875 5.55375 3 6 C3 5.01 3 4.02 3 3 C2.34 3 1.68 3 1 3 C0.67 3.99 0.34 4.98 0 6 C0 4.02 0 2.04 0 0 Z " fill="#E59B37" transform="translate(94,117)"/>
<path d="M0 0 C-0.33 1.65 -0.66 3.3 -1 5 C-3.31 5 -5.62 5 -8 5 C-8 4.01 -8 3.02 -8 2 C-4.77208445 -0.1519437 -3.71599191 -0.20086443 0 0 Z " fill="#FAF8ED" transform="translate(149,88)"/>
<path d="M0 0 C0.99 0 1.98 0 3 0 C3 5.28 3 10.56 3 16 C2.67 16 2.34 16 2 16 C0.40837921 10.42932723 -0.20674944 5.78898419 0 0 Z " fill="#B9D183" transform="translate(179,54)"/>
<path d="M0 0 C0.33 2.97 0.66 5.94 1 9 C-0.65 8.67 -2.3 8.34 -4 8 C-4.33 6.02 -4.66 4.04 -5 2 C-1.125 0 -1.125 0 0 0 Z " fill="#8DB299" transform="translate(185,126)"/>
<path d="M0 0 C-0.33 2.31 -0.66 4.62 -1 7 C-0.01 7.33 0.98 7.66 2 8 C-3.875 7.125 -3.875 7.125 -5 6 C-5.04063832 4.33382885 -5.042721 2.66611905 -5 1 C-3 0 -3 0 0 0 Z " fill="#91B49D" transform="translate(230,120)"/>
<path d="M0 0 C0.99 0 1.98 0 3 0 C3.05422947 1.4370809 3.09289723 2.87475462 3.125 4.3125 C3.14820312 5.11300781 3.17140625 5.91351563 3.1953125 6.73828125 C3 9 3 9 1 12 C0 11 0 11 -0.09765625 8.49609375 C-0.08605469 7.48675781 -0.07445313 6.47742188 -0.0625 5.4375 C-0.05347656 4.42558594 -0.04445313 3.41367188 -0.03515625 2.37109375 C-0.02355469 1.58863281 -0.01195313 0.80617188 0 0 Z " fill="#E6972F" transform="translate(67,117)"/>
<path d="M0 0 C0.66 0.33 1.32 0.66 2 1 C1.01 2.485 1.01 2.485 0 4 C1.32 4 2.64 4 4 4 C4 5.32 4 6.64 4 8 C3.01 8.33 2.02 8.66 1 9 C0.34 9.99 -0.32 10.98 -1 12 C-1.02687279 10.18757948 -1.04633715 8.37504767 -1.0625 6.5625 C-1.07410156 5.55316406 -1.08570313 4.54382813 -1.09765625 3.50390625 C-1 1 -1 1 0 0 Z " fill="#90B59C" transform="translate(200,124)"/>
<path d="M0 0 C0.33 0 0.66 0 1 0 C1 4.29 1 8.58 1 13 C0.01 12.67 -0.98 12.34 -2 12 C-1.85962479 10.18706911 -1.71255111 8.3746557 -1.5625 6.5625 C-1.48128906 5.55316406 -1.40007812 4.54382813 -1.31640625 3.50390625 C-1 1 -1 1 0 0 Z " fill="#ACC171" transform="translate(111,72)"/>
<path d="M0 0 C0 0.66 0 1.32 0 2 C-6.27692308 6.06153846 -6.27692308 6.06153846 -9.9375 5.75 C-10.618125 5.5025 -11.29875 5.255 -12 5 C-8.77464852 1.23708994 -4.90542108 -1.63514036 0 0 Z " fill="#B47F3A" transform="translate(170,45)"/>
<path d="M0 0 C2.625 0.9375 2.625 0.9375 5 2 C5 2.99 5 3.98 5 5 C3.02 5 1.04 5 -1 5 C-1 4.34 -1 3.68 -1 3 C-2.65 3 -4.3 3 -6 3 C-4 2 -2 1 0 0 Z " fill="#CD842D" transform="translate(80,136)"/>
<path d="M0 0 C1.67542976 0.28604898 3.34385343 0.61781233 5 1 C5 2.32 5 3.64 5 5 C3.02 5.99 3.02 5.99 1 7 C0.67 6.01 0.34 5.02 0 4 C0.66 3.67 1.32 3.34 2 3 C2.66 3.33 3.32 3.66 4 4 C4 3.34 4 2.68 4 2 C3.319375 2.33 2.63875 2.66 1.9375 3 C-1.50840238 4.17307315 -4.38397422 4.14180493 -8 4 C-8 3.67 -8 3.34 -8 3 C-6.865625 2.690625 -5.73125 2.38125 -4.5625 2.0625 C-1.21224901 1.37075469 -1.21224901 1.37075469 0 0 Z " fill="#5A776B" transform="translate(241,135)"/>
<path d="M0 0 C2.31 0.66 4.62 1.32 7 2 C4.40517871 4.59482129 2.60116375 4.69990302 -1 5 C-1.66 4.34 -2.32 3.68 -3 3 C-2.01 2.01 -1.02 1.02 0 0 Z " fill="#DA9835" transform="translate(116,116)"/>
<path d="M0 0 C2.31 0.33 4.62 0.66 7 1 C7 2.32 7 3.64 7 5 C4.69 4.67 2.38 4.34 0 4 C0 2.68 0 1.36 0 0 Z " fill="#F5C429" transform="translate(162,87)"/>
<path d="M0 0 C0 0.33 0 0.66 0 1 C-1.6396875 1.37125 -1.6396875 1.37125 -3.3125 1.75 C-7.10530855 3.03569781 -8.13843964 3.58713933 -10 7 C-10.33 7.99 -10.66 8.98 -11 10 C-11.66 10 -12.32 10 -13 10 C-12.74624791 6.27830274 -12.39626084 4.44287976 -9.875 1.625 C-6.3565648 -0.36368076 -3.98002315 -0.31215868 0 0 Z " fill="#F5E79C" transform="translate(148,83)"/>
<path d="M0 0 C4.40114397 0.50298788 6.71195019 2.08772731 10 5 C8.02 5.99 8.02 5.99 6 7 C3.72478134 4.83312509 1.84205838 2.54379491 0 0 Z " fill="#CCB54E" transform="translate(124,46)"/>
<path d="M0 0 C1.77706209 2.66559313 2.87548273 5.0280615 4 8 C3.01 8.33 2.02 8.66 1 9 C-1.14809171 5.77786243 -1.29386153 4.72224599 -1 1 C-0.67 0.67 -0.34 0.34 0 0 Z " fill="#E0952C" transform="translate(68,131)"/>
<path d="M0 0 C2.31 0 4.62 0 7 0 C7 0.66 7 1.32 7 2 C7.99 1.67 8.98 1.34 10 1 C10 1.66 10 2.32 10 3 C6.7 3 3.4 3 0 3 C0 2.01 0 1.02 0 0 Z " fill="#92B49E" transform="translate(189,139)"/>
<path d="M0 0 C0.99 0.33 1.98 0.66 3 1 C3 1.66 3 2.32 3 3 C3.99 3.33 4.98 3.66 6 4 C5.01 4.495 5.01 4.495 4 5 C3.01 6.485 3.01 6.485 2 8 C1.34 7.01 0.68 6.02 0 5 C-0.66 4.67 -1.32 4.34 -2 4 C-1.34 2.68 -0.68 1.36 0 0 Z " fill="#6C8F7C" transform="translate(184,118)"/>
<path d="M0 0 C0.763125 0.0825 1.52625 0.165 2.3125 0.25 C1.9825 1.57 1.6525 2.89 1.3125 4.25 C-0.9975 4.25 -3.3075 4.25 -5.6875 4.25 C-3.34903846 0.31153846 -3.34903846 0.31153846 0 0 Z " fill="#D19336" transform="translate(106.6875,116.75)"/>
<path d="M0 0 C0.99 0.99 1.98 1.98 3 3 C2.67 3.99 2.34 4.98 2 6 C2 5.34 2 4.68 2 4 C-0.51083114 5.25541557 -0.87125446 6.50063488 -2 9 C-3 6 -3 6 -1.5625 2.8125 C-1.046875 1.884375 -0.53125 0.95625 0 0 Z " fill="#8D9C68" transform="translate(111,32)"/>
<path d="M0 0 C0.66 0 1.32 0 2 0 C2.33 2.97 2.66 5.94 3 9 C2.67 7.68 2.34 6.36 2 5 C0.68 5 -0.64 5 -2 5 C-1.34 3.35 -0.68 1.7 0 0 Z " fill="#678476" transform="translate(202,123)"/>
<path d="M0 0 C2.97 0.495 2.97 0.495 6 1 C6 2.32 6 3.64 6 5 C5.01 5.33 4.02 5.66 3 6 C2.814375 5.071875 2.814375 5.071875 2.625 4.125 C2.12802644 1.80879168 2.12802644 1.80879168 0 0 Z " fill="#82A28E" transform="translate(193,116)"/>
<path d="M0 0 C1.485 0.99 1.485 0.99 3 2 C3 2.99 3 3.98 3 5 C3.99 5 4.98 5 6 5 C6 5.66 6 6.32 6 7 C1.125 6.125 1.125 6.125 0 5 C-0.04063832 3.33382885 -0.042721 1.66611905 0 0 Z " fill="#F3D144" transform="translate(159,86)"/>
<path d="M0 0 C4.23830976 2.82553984 3.97715348 5.12180888 5 10 C4.01 9.67 3.02 9.34 2 9 C1.26953125 6.93359375 1.26953125 6.93359375 0.8125 4.4375 C0.65394531 3.61121094 0.49539062 2.78492187 0.33203125 1.93359375 C0.16767578 0.97646484 0.16767578 0.97646484 0 0 Z " fill="#F8E06F" transform="translate(154,83)"/>
<path d="M0 0 C3.06393013 -0.25532751 4.63233212 -0.21861333 7.3125 1.375 C7.869375 1.91125 8.42625 2.4475 9 3 C9 3.66 9 4.32 9 5 C7.35 5.33 5.7 5.66 4 6 C4 4.35 4 2.7 4 1 C2.68 0.67 1.36 0.34 0 0 Z " fill="#A8BA7D" transform="translate(173,30)"/>
<path d="M0 0 C0.66 1.32 1.32 2.64 2 4 C2.66 4.33 3.32 4.66 4 5 C4 5.66 4 6.32 4 7 C3.01 7 2.02 7 1 7 C0.34 8.32 -0.32 9.64 -1 11 C-0.67 7.37 -0.34 3.74 0 0 Z " fill="#6A8978" transform="translate(224,122)"/>
<path d="M0 0 C-0.6875 1.9375 -0.6875 1.9375 -2 4 C-4.625 4.75 -4.625 4.75 -7 5 C-7 4.34 -7 3.68 -7 3 C-2.61538462 0 -2.61538462 0 0 0 Z " fill="#CB8F3D" transform="translate(158,50)"/>
<path d="M0 0 C3.63 0 7.26 0 11 0 C11 0.33 11 0.66 11 1 C7.7 1 4.4 1 1 1 C1.33 1.99 1.66 2.98 2 4 C1.01 4 0.02 4 -1 4 C-0.67 2.68 -0.34 1.36 0 0 Z " fill="#B2C485" transform="translate(113,30)"/>
<path d="M0 0 C2.475 0.99 2.475 0.99 5 2 C5 2.66 5 3.32 5 4 C3.02 4 1.04 4 -1 4 C-0.67 2.68 -0.34 1.36 0 0 Z " fill="#91B59F" transform="translate(191,116)"/>
<path d="M0 0 C0.33 0 0.66 0 1 0 C2 3 3 6 4 9 C3.01 9 2.02 9 1 9 C0 8 0 8 -0.09765625 6.15234375 C-0.06510417 4.1015625 -0.03255208 2.05078125 0 0 Z " fill="#A37835" transform="translate(66,132)"/>
<path d="M0 0 C3.465 1.485 3.465 1.485 7 3 C6.01 3.495 6.01 3.495 5 4 C4.01 3.67 3.02 3.34 2 3 C1.01 3.66 0.02 4.32 -1 5 C-0.67 3.35 -0.34 1.7 0 0 Z " fill="#F3C039" transform="translate(129,52)"/>
</svg>
